<?xml version="1.0" encoding="utf-8"?>
<!-- Generator: Adobe Illustrator 18.1.1, SVG Export Plug-In . SVG Version: 6.00 Build 0)  -->
<svg version="1.1" id="Layer_1" xmlns="http://www.w3.org/2000/svg" xmlns:xlink="http://www.w3.org/1999/xlink" x="0px" y="0px"
	 viewBox="0 0 30 30" enable-background="new 0 0 30 30" xml:space="preserve">
<g>
	<path fill="#6E6F72" d="M15,30c-5.1,0-9.8-2.5-12.6-6.8C-2.1,16.3-0.2,7,6.8,2.5C9.2,0.9,12.1,0,15,0c5.1,0,9.8,2.5,12.6,6.8
		c4.5,6.9,2.6,16.2-4.3,20.8C20.8,29.1,17.9,30,15,30z M15,1c-2.7,0-5.4,0.8-7.7,2.3c-6.5,4.2-8.3,12.9-4,19.4c2.6,4,7,6.3,11.7,6.3
		c2.7,0,5.4-0.8,7.7-2.3c6.5-4.2,8.3-12.9,4-19.4C24.1,3.4,19.7,1,15,1z"/>
</g>
<g>
	<path fill="#6E6F72" d="M23.9,9v11h-18V9h17 M24.9,8h-20v13h20V8L24.9,8z"/>
</g>
<path fill="#6E6F72" d="M21.3,9l-6.2,4.9L9.3,9H21.3z M24,8h-9H6l4.5,4l4.5,4l4.5-4L24,8L24,8z"/>
</svg>
