<?xml version="1.0" encoding="utf-8"?>
<!-- Generator: Adobe Illustrator 18.1.1, SVG Export Plug-In . SVG Version: 6.00 Build 0)  -->
<svg version="1.1" id="Layer_1" xmlns="http://www.w3.org/2000/svg" xmlns:xlink="http://www.w3.org/1999/xlink" x="0px" y="0px"
	 viewBox="0 0 71.9 30" enable-background="new 0 0 71.9 30" xml:space="preserve">
<g id="YouTube_logo_dark_color">
	<path id="lozenge_2_" fill="#E52E28" d="M71.5,6.5c0,0-0.4-2.9-1.7-4.2c-1.6-1.7-3.5-1.7-4.3-1.8c-6-0.4-15-0.4-15-0.4h0
		c0,0-9,0-15,0.4c-0.8,0.1-2.7,0.1-4.3,1.8c-1.3,1.3-1.7,4.2-1.7,4.2S29,9.9,29,13.4v3.2c0,3.5,0.4,6.9,0.4,6.9s0.4,2.9,1.7,4.2
		c1.6,1.7,3.8,1.6,4.7,1.8c3.4,0.3,14.6,0.4,14.6,0.4s9,0,15-0.4c0.8-0.1,2.7-0.1,4.3-1.8c1.3-1.3,1.7-4.2,1.7-4.2s0.4-3.5,0.4-6.9
		v-3.2C71.9,9.9,71.5,6.5,71.5,6.5z"/>
	<path id="u_3_" fill="#010101" d="M26.8,24.3h-2.7v-1.6c-1,1.2-1.9,1.8-2.9,1.8c-0.8,0-1.4-0.4-1.7-1.1c-0.2-0.4-0.3-1.1-0.3-2.1
		V9.8H22v10.8c0,0.6,0,0.9,0,1c0.1,0.4,0.2,0.5,0.6,0.5c0.5,0,1-0.5,1.6-1.3v-11h2.7V24.3z"/>
	<path id="o_2_" fill="#010101" d="M17.2,14.5c0-1.5-0.3-2.7-0.9-3.4c-0.7-1-1.9-1.4-3-1.4c-1.3,0-2.3,0.4-3,1.4
		c-0.6,0.7-0.9,1.9-0.9,3.5l0,5.2c0,1.5,0.3,2.6,0.8,3.3c0.7,1,1.9,1.5,3,1.5c1.1,0,2.3-0.5,3.1-1.5c0.5-0.7,0.8-1.8,0.8-3.3V14.5z
		 M14.5,20c0.1,1.4-0.3,2.1-1.1,2.1c-0.8,0-1.3-0.7-1.1-2.1v-5.7c-0.1-1.4,0.3-2.1,1.1-2.1s1.3,0.7,1.1,2.1L14.5,20z"/>
	<path id="y_2_" fill="#010101" d="M6.5,16.4v7.9H3.6v-7.9c0,0-3-9.7-3.6-11.5h3l2,7.6l2-7.6h3L6.5,16.4z"/>
	<path id="e_2_" fill="#FFFFFF" d="M68.3,17.5v-2.9c0-1.5-0.3-2.7-0.8-3.4c-0.7-1-1.8-1.5-3.1-1.5c-1.3,0-2.4,0.5-3.1,1.5
		c-0.6,0.7-0.9,1.9-0.9,3.4v5c0,1.5,0.4,2.6,0.9,3.3c0.8,1,1.8,1.5,3.1,1.5s2.4-0.5,3.1-1.6c0.3-0.5,0.5-1,0.6-1.6
		c0-0.3,0.1-0.9,0.1-1.7v-0.4h-2.7c0,1,0,1.7,0,1.8c-0.1,0.7-0.5,1-1.2,1c-0.9,0-1.3-0.7-1.3-2v-2.6H68.3z M63.1,13.8
		c0-1.3,0.4-1.7,1.2-1.7c0.9,0,1.2,0.4,1.2,1.7v1.6l-2.4,0V13.8z"/>
	<path id="b_2_" fill="#FFFFFF" d="M56.3,9.7c-1,0-1.9,0.6-2.7,1.6l0-6.3h-2.6v19.2h2.6l0-1.4c0.9,1.1,1.8,1.6,2.7,1.6
		c1,0,1.8-0.6,2.1-1.6c0.2-0.6,0.3-1.5,0.3-2.9v-5.7c0-1.4-0.2-2.3-0.3-2.9C58,10.3,57.3,9.7,56.3,9.7z M56,20.1c0,1.4-0.3,2-1.1,2
		c-0.4,0-0.9-0.2-1.4-0.7l0-8.7c0.4-0.4,0.9-0.7,1.4-0.7c0.7,0,1.1,0.4,1.1,1.9V20.1z"/>
	<path id="u_2_" fill="#FFFFFF" d="M48.8,24.3h-2.7v-1.6c-1,1.2-1.9,1.8-2.9,1.8c-0.8,0-1.4-0.4-1.7-1.1c-0.2-0.4-0.3-1.1-0.3-2.1
		V9.9h2.7v10.6c0,0.6,0,0.9,0,1c0.1,0.4,0.2,0.5,0.6,0.5c0.5,0,1-0.5,1.6-1.3V9.9h2.7V24.3z"/>
	<polygon id="T_2_" fill="#FFFFFF" points="38.5,24.3 35.6,24.3 35.6,7.8 32.6,7.8 32.6,5.1 41.6,5 41.6,7.8 38.5,7.8 	"/>
</g>
</svg>
