<?xml version="1.0" encoding="utf-8"?>
<!-- Generator: Adobe Illustrator 18.1.1, SVG Export Plug-In . SVG Version: 6.00 Build 0)  -->
<svg version="1.1" id="Layer_1" xmlns="http://www.w3.org/2000/svg" xmlns:xlink="http://www.w3.org/1999/xlink" x="0px" y="0px"
	 viewBox="0 0 30 30" enable-background="new 0 0 30 30" xml:space="preserve">
<g>
	<path fill="#6E6F72" d="M15,30c-5.1,0-9.8-2.5-12.6-6.8C-2.1,16.3-0.2,7,6.8,2.5C9.2,0.9,12.1,0,15,0c5.1,0,9.8,2.5,12.6,6.8
		c4.5,6.9,2.6,16.2-4.3,20.8C20.8,29.1,17.9,30,15,30z M15,1c-2.7,0-5.4,0.8-7.7,2.3c-6.5,4.2-8.3,12.9-4,19.4c2.6,4,7,6.3,11.7,6.3
		c2.7,0,5.4-0.8,7.7-2.3c6.5-4.2,8.3-12.9,4-19.4C24.1,3.4,19.7,1,15,1z"/>
</g>
<path fill="#6E6F72" d="M6.7,7.9c-0.7,1.2,0,2.9,0.6,3.9c1.3,2.4,3.7,5.1,4.8,6.2c1.3,1.3,4.8,4.6,7.4,5.4c0,0,0,0,0.1,0
	c0,0,0,0,0,0c0.8,0.3,1.8,0.2,2.4-0.2c1.9-1.1,1.5-2.3,1.5-2.3L20,17.4l-2.7,1.8c-1-0.7-2.2-1.6-3.5-2.9c-1.3-1.3-2.2-2.7-3-3.7
	l1.7-2.6L9,6.4C9,6.4,7.8,6.1,6.7,7.9z"/>
</svg>
